<svg preserveAspectRatio="none" overflow="visible" style="display: block;" width="52.5201" height="52.5201" viewBox="0 0 52.5201 52.5201" fill="none" xmlns="http://www.w3.org/2000/svg">
<g id="Fourth profile card">
<path id="Card surface" d="M9.06002 0.260001H43.4601C49.3268 0.260001 52.2601 3.19334 52.2601 9.06002V43.4601C52.2601 49.3268 49.3268 52.2601 43.4601 52.2601H9.06002C3.19334 52.2601 0.260001 49.3268 0.260001 43.4601V9.06002C0.260001 3.19334 3.19334 0.260001 9.06002 0.260001Z" fill="url(#paint0_linear_0_46)" stroke="url(#paint1_linear_0_46)" stroke-width="0.520001"/>
<g id="Avatar">
<g id="Avatar head" filter="url(#filter0_d_0_46)">
<path d="M25.859 25.0605C29.8355 25.0605 33.059 21.8369 33.059 17.8605C33.059 13.884 29.8355 10.6604 25.859 10.6604C21.8826 10.6604 18.659 13.884 18.659 17.8605C18.659 21.8369 21.8826 25.0605 25.859 25.0605Z" fill="url(#paint2_linear_0_46)"/>
</g>
<g id="Avatar shoulders" filter="url(#filter1_d_0_46)">
<path d="M13.8598 39.8601V37.0601C13.8598 30.6601 18.6598 27.0601 25.8598 27.0601C33.0599 27.0601 38.2599 30.6601 38.2599 37.0601V39.8601C29.9932 40.6601 21.8598 40.6601 13.8598 39.8601Z" fill="url(#paint3_linear_0_46)"/>
</g>
<path id="Head highlight" d="M19.8594 15.4605C20.2594 12.2604 23.0594 10.6604 25.8594 10.6604" stroke="#A5CDC6" stroke-opacity="0.5" stroke-width="0.480001"/>
<path id="Shoulder highlight" d="M14.2607 36.6604C14.6607 30.6604 19.4607 27.4604 25.0607 27.4604" stroke="#879EAE" stroke-opacity="0.5" stroke-width="0.440001"/>
</g>
</g>
<defs>
<filter id="filter0_d_0_46" x="18.259" y="10.6604" width="17.6" height="17.6" filterUnits="userSpaceOnUse" color-interpolation-filters="sRGB">
<feFlood flood-opacity="0" result="BackgroundImageFix"/>
<feColorMatrix in="SourceAlpha" type="matrix" values="0 0 0 0 0 0 0 0 0 0 0 0 0 0 0 0 0 0 127 0" result="hardAlpha"/>
<feOffset dx="1.2" dy="1.6"/>
<feGaussianBlur stdDeviation="0.800002"/>
<feColorMatrix type="matrix" values="0 0 0 0 0 0 0 0 0 0.025 0 0 0 0 0.04 0 0 0 0.55 0"/>
<feBlend mode="normal" in2="BackgroundImageFix" result="effect1_dropShadow_0_46"/>
<feBlend mode="normal" in="SourceGraphic" in2="effect1_dropShadow_0_46" result="shape"/>
</filter>
<filter id="filter1_d_0_46" x="13.4598" y="27.0601" width="27.6001" height="16.6" filterUnits="userSpaceOnUse" color-interpolation-filters="sRGB">
<feFlood flood-opacity="0" result="BackgroundImageFix"/>
<feColorMatrix in="SourceAlpha" type="matrix" values="0 0 0 0 0 0 0 0 0 0 0 0 0 0 0 0 0 0 127 0" result="hardAlpha"/>
<feOffset dx="1.2" dy="1.6"/>
<feGaussianBlur stdDeviation="0.800002"/>
<feColorMatrix type="matrix" values="0 0 0 0 0 0 0 0 0 0.025 0 0 0 0 0.04 0 0 0 0.55 0"/>
<feBlend mode="normal" in2="BackgroundImageFix" result="effect1_dropShadow_0_46"/>
<feBlend mode="normal" in="SourceGraphic" in2="effect1_dropShadow_0_46" result="shape"/>
</filter>
<linearGradient id="paint0_linear_0_46" x1="0.260001" y1="0.260001" x2="52.2601" y2="52.2601" gradientUnits="userSpaceOnUse">
<stop stop-color="#1C2A35"/>
<stop offset="0.55" stop-color="#1A212C"/>
<stop offset="1" stop-color="#141922"/>
</linearGradient>
<linearGradient id="paint1_linear_0_46" x1="0.260001" y1="0.260001" x2="52.2601" y2="52.2601" gradientUnits="userSpaceOnUse">
<stop stop-color="#3C4D59"/>
<stop offset="0.5" stop-color="#252F3B"/>
<stop offset="1" stop-color="#19202A"/>
</linearGradient>
<linearGradient id="paint2_linear_0_46" x1="18.659" y1="10.6604" x2="33.059" y2="25.0605" gradientUnits="userSpaceOnUse">
<stop stop-color="#7898A8"/>
<stop offset="0.4" stop-color="#4E697C"/>
<stop offset="1" stop-color="#253242"/>
</linearGradient>
<linearGradient id="paint3_linear_0_46" x1="13.8598" y1="27.0601" x2="25.1675" y2="47.6502" gradientUnits="userSpaceOnUse">
<stop stop-color="#7898A8"/>
<stop offset="0.4" stop-color="#4E697C"/>
<stop offset="1" stop-color="#253242"/>
</linearGradient>
</defs>
</svg>
